<?xml version="1.0" encoding="UTF-8"?>
<svg id="Layer_2" data-name="Layer 2" xmlns="http://www.w3.org/2000/svg" viewBox="0 0 587.23 492.88">
  <defs>
    <style>
      .cls-1 {
        fill: #545454;
      }
    </style>
  </defs>
  <g id="Layer_1-2" data-name="Layer 1">
    <g>
      <path class="cls-1" d="M0,164.29c84.69-1.54,163.98-29.26,241.74-60.6,19.64-6.81,41.29-12.79,61.02-3.08,21.45,10.55,23.43,38.75,23.94,59.25.69,27.65-7.22,56.4-23.94,78.99-15.6,21.07-36.75,37.76-61.02,47.91-67.45,27.03-135.74,51.08-208.42,58.61,0,48.66,0,97.32,0,145.99-11.17.84-22.13,1.34-33.33,1.53C0,383.35,0,273.82,0,164.29ZM280,222.81c9.42-14.06,13.57-32.55,13.85-49.23.22-12.91-2.48-30.47-13.85-37.85-11.68-7.58-25.69-2.87-38.26,1.28-67.43,27.18-135.72,51.38-208.42,59.08v115.94c72.68-7.53,140.97-31.58,208.42-58.61,15.12-6.34,29.19-17.09,38.26-30.62Z"/>
      <path class="cls-1" d="M400.87,39.14c11.81-4.3,23.7-8.4,35.67-12.23,53.15,99.11,103.65,199.53,150.68,301.68-12.54,0-25.08.67-37.55,1.93-12.03-24.93-24.23-49.77-36.61-74.53-65.73,13.02-127.9,36.96-189.64,62.48-12.21,31.7-24.41,63.41-36.61,95.12-12.5,5.25-25.01,10.47-37.55,15.62,50.44-130.06,100.4-260.31,151.62-390.07ZM498.04,225.68c-25.78-50.4-52.27-100.41-79.33-150.14-27.08,67.67-53.75,135.5-80.27,203.4,52.15-21.22,104.61-40.71,159.6-53.26Z"/>
    </g>
  </g>
</svg>