<?xml version="1.0" encoding="UTF-8"?>
<svg id="Layer_2" data-name="Layer 2" xmlns="http://www.w3.org/2000/svg" viewBox="0 0 514.99 322.42">
  <g id="Layer_1-2" data-name="Layer 1">
    <g>
      <path d="M7.41,100.23c10.83-.38,21.55-.98,32.36-1.79,15.43-2.14,32.78,5.74,32.36,23.39v.24c.06,18.11-16.94,30.81-33.96,31.49-8.4.65-12.6.91-21,1.23v29.94c-3.9.14-5.85.2-9.76.26,0-28.26,0-56.52,0-84.77ZM38.53,144.8c11.89-1.15,23.16-8.23,23.71-21.09v-.24c.42-12.84-12.41-17.58-23.22-16.1-8.74.73-13.12,1.01-21.86,1.38v37.33c8.55-.34,12.82-.6,21.37-1.28Z"/>
      <path d="M72.99,161.65v-.24c.58-14.3,14.52-22.67,27.29-24.56,7.98-1.18,13.96-1.42,19.64-.95v-2.2c0-11.36-7.04-15.77-19.02-13.67-7.53,1.32-13.46,4.22-19.39,7.78-1.14-2.9-1.7-4.35-2.84-7.26,7.04-4.19,13.96-7.36,23.22-9,9.02-1.6,15.93-.65,20.62,3.05,4.32,3.41,6.55,9.05,6.55,17.12,0,12.88,0,25.76,0,38.64-3.66.74-5.48,1.11-9.14,1.82v-9.53c-4.57,7.47-14.76,13.75-23.09,15.03-10.69,1.65-23.88-3.22-23.84-16.04ZM120.04,148.95c0-2.44,0-3.67,0-6.11-4.69-.42-10.99-.56-18.77.79-11.98,2.08-18.65,8.13-18.65,16.05v.24c0,7.92,7.42,11.48,16.06,10.01,10.53-1.79,20.82-9.59,21.37-20.99Z"/>
      <path d="M140.05,104.8c3.8-.83,5.71-1.26,9.51-2.13,0,6.61,0,9.92,0,16.53,4.56-11.4,13.79-21.1,26.06-23.85,0,4.07,0,6.11,0,10.19-.3.07-.44.11-.74.18-15.47,3.85-26,19.26-25.32,35.04,0,10.09,0,15.14,0,25.23-3.8.85-5.71,1.27-9.51,2.08,0-21.09,0-42.18,0-63.27Z"/>
      <path d="M172.9,142.16v-.25c.66-14.55,14.26-24.31,27.3-27.39,8.01-1.89,13.96-2.56,19.64-2.48v-2.22c0-11.45-7.04-15.45-19.02-12.31-7.53,1.97-13.46,5.45-19.39,9.64-1.14-2.81-1.7-4.21-2.84-7.02,7.04-4.95,13.96-8.81,23.22-11.24,9.02-2.37,15.93-1.9,20.62,1.52,4.32,3.15,6.55,8.7,6.55,16.84,0,12.98,0,25.96,0,38.94-3.66.98-5.48,1.46-9.14,2.43,0-3.84,0-5.76,0-9.61-4.56,7.82-14.64,14.85-23.1,16.97-10.15,2.55-24.05-.78-23.84-13.83ZM219.95,125.2v-6.16c-4.69-.1-10.99.22-18.77,2.24-11.98,3.11-18.65,9.92-18.65,17.9v.25c0,7.98,7.44,10.83,16.06,8.59,10.6-2.75,20.75-11.19,21.37-22.82Z"/>
      <path d="M236.25,112.56v-.25c.04-18.33,12.76-36.55,30.51-41.55,11.76-3.32,19.51,1.09,24.45,6.94,0-12.88,0-25.76,0-38.63,3.8-1.04,5.71-1.55,9.51-2.58,0,30.15,0,60.31,0,90.46-3.8,1-5.71,1.5-9.51,2.51,0-5.15,0-7.73,0-12.88-5.35,9.65-13.62,17.77-24.45,20.8-16.33,4.56-31.76-7.63-30.51-24.82ZM291.58,97.41v-.25c.4-12.83-10.86-21.59-23.09-18.35-13.35,3.53-22.06,17.41-22.48,30.73v.25c-.56,12.72,10.11,22.47,22.48,18.6,12.53-3.92,23.47-17.15,23.09-30.97Z"/>
      <path d="M312.94,35.08c4.35-1.15,6.52-1.72,10.87-2.85v10.55c-4.35,1.12-6.52,1.69-10.87,2.84v-10.54ZM313.56,59.48c3.8-1,5.71-1.49,9.51-2.47,0,21.39,0,42.78,0,64.18-3.8.96-5.71,1.45-9.51,2.43V59.48Z"/>
      <path d="M330.6,111.09c1.93-3.21,2.89-4.82,4.82-8.03,6.92,3.51,14.57,4.66,22.11,2.93,7.66-1.76,13.22-6.96,13.22-13.19v-.25c0-6.48-7.74-7.54-15.93-7.71-8.4-.18-21.32-1.57-21.12-13.03v-.25c.34-12.19,10.48-21.07,21.74-23.7,7.77-1.82,16.43-1.05,22.97,1.9-1.73,3.26-2.59,4.9-4.32,8.17-5.93-2.56-12.72-3.38-18.9-1.92-7.53,1.78-12.35,6.95-12.35,12.3v.25c0,6.09,7.92,6.54,16.43,7.16,9.86.72,20.5,2.3,20.5,13.9v.25c-.55,12.91-10.95,21.49-22.73,24.33-9.02,2.17-19.27.95-26.43-3.1Z"/>
      <path d="M384.2,74.97v-.25c-.5-17.81,13.54-35.74,30.63-39.47,17.99-3.93,29.89,13.58,29.77,29.59,0,1.24,0,2.01-.12,3.15-16.97,2.36-33.81,5.18-50.64,8.4.75,11.87,10.84,19.83,22.48,17.74,8.66-1.56,14.94-6.02,20.13-12.27,2.37,1.82,3.56,2.73,5.93,4.57-6.5,8.5-15.8,14.33-26.31,16.11-16.96,2.87-32.97-9.77-31.86-27.58ZM434.96,62.16c-.57-10.93-8.42-21.2-20.38-18.75-12.11,2.48-19.62,14.07-20.75,25.86,13.67-2.62,27.35-5.1,41.13-7.11Z"/>
      <path d="M39.4,215.84c3.66-.27,5.48-.43,9.14-.76,13.03,27.09,26.16,54.12,39.4,81.11-4.2.61-6.3.9-10.5,1.44-4.05-8.49-6.08-12.74-10.13-21.27-15.62,1.86-31.33,3.04-47.06,3.63-4.1,9.11-6.15,13.65-10.25,22.67-4,.05-6,.06-10,.03,13.33-28.86,26.45-57.81,39.4-86.84ZM63.48,268.15c-6.57-13.82-13.11-27.65-19.64-41.49-6.53,14.88-13.12,29.73-19.76,44.57,13.16-.57,26.3-1.62,39.4-3.07Z"/>
      <path d="M87.06,265.11v-.24c-.49-18.36,15.42-35.11,32.73-38.46,12.05-2.33,19.64,1.11,25.57,6.08-2.52,3.18-3.78,4.77-6.3,7.94-5.06-4.21-10.85-7.17-19.39-5.69-13.17,2.28-22.33,15.66-22.85,28.39v.24c-.19,12.92,10.47,22.96,23.47,20.49,8.1-1.54,14.45-6.81,19.51-13.24,2.42,1.75,3.63,2.63,6.05,4.37-6.38,8.73-15.34,15.39-26.06,17.39-16.68,3.13-33.57-9.68-32.73-27.28Z"/>
      <path d="M147.46,267.07v-.24c.63-14.47,14.32-23.87,27.29-26.62,8-1.69,13.96-2.24,19.64-2.05v-2.21c0-11.43-7.04-15.54-19.02-12.69-7.53,1.79-13.46,5.12-19.39,9.14-1.14-2.83-1.7-4.25-2.84-7.09,7.04-4.74,13.96-8.41,23.22-10.63,9.02-2.16,15.93-1.55,20.63,1.94,4.32,3.22,6.55,8.8,6.55,16.92,0,12.95,0,25.91,0,38.86-3.66.91-5.48,1.36-9.14,2.26,0-3.83,0-5.75,0-9.59-4.56,7.72-14.67,14.55-23.1,16.44-10.31,2.32-24-1.46-23.84-14.43ZM194.51,251.26v-6.14c-4.69-.19-10.99,0-18.77,1.84-11.98,2.83-18.65,9.43-18.65,17.4v.25c0,7.97,7.43,11.01,16.06,8.98,10.59-2.49,20.77-10.76,21.37-22.32Z"/>
      <path d="M210.81,238.94v-.25c.03-18.27,12.78-36.27,30.51-41.09,11.76-3.2,19.51,1.24,24.45,7.1,0-12.85,0-25.71,0-38.56,3.8-1.02,5.71-1.53,9.51-2.54,0,30.09,0,60.19,0,90.28-3.8.99-5.71,1.48-9.51,2.47,0-5.14,0-7.71,0-12.85-5.35,9.6-13.62,17.68-24.45,20.58-16.39,4.4-31.74-8.01-30.51-25.15ZM266.14,224.38v-.25c.39-12.83-10.86-21.58-23.09-18.47-13.34,3.39-22.07,17.14-22.48,30.41v.25c-.54,12.7,10.08,22.56,22.48,18.82,12.52-3.78,23.48-16.97,23.09-30.75Z"/>
      <path d="M283.3,220v-.25c-.46-18.13,13.9-36.16,30.63-41.22,17.45-5.27,29.93,10.57,29.76,26.65-.01,1.23,0,1.99-.12,3.14-16.92,4.01-33.79,8.21-50.64,12.52.7,11.87,11.24,18.97,22.48,16,8.6-2.27,14.94-7.25,20.13-13.95,2.37,1.57,3.56,2.36,5.93,3.95-6.43,8.99-15.62,15.68-26.31,18.38-16.56,4.18-33.06-7.35-31.86-25.21ZM334.06,203.49c-.51-10.86-8.81-20.21-20.38-16.82-11.97,3.5-19.54,15.08-20.75,27.12,13.69-3.52,27.39-6.96,41.13-10.3Z"/>
      <path d="M351.1,170.88c3.8-.88,5.71-1.31,9.51-2.16v10.83c4.2-7.28,9.88-14.42,20.63-16.61,10.37-2.12,17.04,2.29,20.5,8.9,4.75-8.56,12.63-15.21,22.48-16.64,13.91-2.02,24.82,8.62,23.71,22.83v40.11c-3.8.43-5.71.67-9.51,1.15,0-12.61,0-25.22,0-37.82.6-9.81-5.88-19.15-16.55-17.14-10.82,2.03-17.79,12.14-17.66,22.94v37.22c-3.75.65-5.63.99-9.39,1.68v-37.95c0-12.11-6.47-18.17-16.43-15.97-10.88,2.4-17.74,13.17-17.78,24.11v36.73c-3.8.83-5.71,1.25-9.51,2.11v-64.32Z"/>
      <path d="M504.86,149.31c4.05-.07,6.08-.09,10.13-.08-8.99,22.57-17.92,45.17-26.8,67.79-3.32,9.68-10.36,18.95-21.24,19.7-5.25.36-9.26-.31-13.59-1.99,1.28-3.19,1.93-4.79,3.21-7.98,3.09,1.32,5.93,1.81,10,1.47,5.68-.47,9.26-3.72,13.09-13.13-9.59-20.73-19.26-41.41-29.02-62.06,4.2-.48,6.3-.71,10.5-1.12,7.79,17.43,15.53,34.88,23.22,52.35,6.8-18.33,13.63-36.65,20.5-54.95Z"/>
    </g>
  </g>
</svg>